<mxfile host="app.diagrams.net" modified="2023-07-18T20:32:35.125Z" agent="Mozilla/5.0 (X11; Ubuntu; Linux x86_64; rv:109.0) Gecko/20100101 Firefox/115.0" etag="LtHX1vT73wquotGw5iou" version="21.6.2" type="github">
  <diagram name="Страница 1" id="QG4lw_gwYli3VmN4gazu">
    <mxGraphModel dx="1687" dy="854" grid="0" gridSize="10" guides="1" tooltips="1" connect="1" arrows="1" fold="1" page="1" pageScale="1" pageWidth="1169" pageHeight="827" math="0" shadow="0">
      <root>
        <mxCell id="0" />
        <mxCell id="1" parent="0" />
        <mxCell id="WlWlzccpBVXDmkGFudgn-2" value="" style="rounded=0;whiteSpace=wrap;html=1;" vertex="1" parent="1">
          <mxGeometry x="80" y="142.5" width="620" height="340" as="geometry" />
        </mxCell>
        <mxCell id="WlWlzccpBVXDmkGFudgn-4" value="" style="rounded=0;whiteSpace=wrap;html=1;" vertex="1" parent="1">
          <mxGeometry x="840" y="150" width="274" height="350" as="geometry" />
        </mxCell>
        <mxCell id="WlWlzccpBVXDmkGFudgn-5" value="" style="rounded=0;whiteSpace=wrap;html=1;" vertex="1" parent="1">
          <mxGeometry x="265" y="620" width="245" height="146" as="geometry" />
        </mxCell>
        <mxCell id="WlWlzccpBVXDmkGFudgn-82" style="edgeStyle=none;rounded=0;orthogonalLoop=1;jettySize=auto;html=1;exitX=1;exitY=0.5;exitDx=0;exitDy=0;entryX=0;entryY=0.5;entryDx=0;entryDy=0;entryPerimeter=0;" edge="1" parent="1" source="WlWlzccpBVXDmkGFudgn-7" target="WlWlzccpBVXDmkGFudgn-11">
          <mxGeometry relative="1" as="geometry" />
        </mxCell>
        <mxCell id="WlWlzccpBVXDmkGFudgn-94" style="edgeStyle=none;rounded=0;orthogonalLoop=1;jettySize=auto;html=1;exitX=0.5;exitY=0;exitDx=0;exitDy=0;entryX=0.5;entryY=1;entryDx=0;entryDy=0;" edge="1" parent="1" source="WlWlzccpBVXDmkGFudgn-7" target="WlWlzccpBVXDmkGFudgn-8">
          <mxGeometry relative="1" as="geometry" />
        </mxCell>
        <mxCell id="WlWlzccpBVXDmkGFudgn-7" value="app" style="html=1;whiteSpace=wrap;" vertex="1" parent="1">
          <mxGeometry x="350" y="389" width="120" height="50" as="geometry" />
        </mxCell>
        <mxCell id="WlWlzccpBVXDmkGFudgn-95" style="edgeStyle=none;rounded=0;orthogonalLoop=1;jettySize=auto;html=1;exitX=0.5;exitY=1;exitDx=0;exitDy=0;entryX=0.5;entryY=0;entryDx=0;entryDy=0;" edge="1" parent="1" source="WlWlzccpBVXDmkGFudgn-8" target="WlWlzccpBVXDmkGFudgn-7">
          <mxGeometry relative="1" as="geometry" />
        </mxCell>
        <mxCell id="WlWlzccpBVXDmkGFudgn-8" value="&lt;div&gt;File Storage&lt;/div&gt;" style="html=1;whiteSpace=wrap;" vertex="1" parent="1">
          <mxGeometry x="350" y="235" width="110" height="50" as="geometry" />
        </mxCell>
        <mxCell id="WlWlzccpBVXDmkGFudgn-83" style="edgeStyle=none;rounded=0;orthogonalLoop=1;jettySize=auto;html=1;exitX=0;exitY=0.5;exitDx=0;exitDy=0;exitPerimeter=0;entryX=1;entryY=0.5;entryDx=0;entryDy=0;" edge="1" parent="1" source="WlWlzccpBVXDmkGFudgn-11" target="WlWlzccpBVXDmkGFudgn-7">
          <mxGeometry relative="1" as="geometry" />
        </mxCell>
        <mxCell id="WlWlzccpBVXDmkGFudgn-93" style="edgeStyle=none;rounded=0;orthogonalLoop=1;jettySize=auto;html=1;exitX=0.5;exitY=0;exitDx=0;exitDy=0;exitPerimeter=0;entryX=0.5;entryY=1;entryDx=0;entryDy=0;" edge="1" parent="1" source="WlWlzccpBVXDmkGFudgn-11" target="WlWlzccpBVXDmkGFudgn-36">
          <mxGeometry relative="1" as="geometry" />
        </mxCell>
        <mxCell id="WlWlzccpBVXDmkGFudgn-11" value="" style="strokeWidth=2;html=1;shape=mxgraph.flowchart.start_1;whiteSpace=wrap;" vertex="1" parent="1">
          <mxGeometry x="515" y="354" width="140" height="60" as="geometry" />
        </mxCell>
        <mxCell id="WlWlzccpBVXDmkGFudgn-100" style="edgeStyle=orthogonalEdgeStyle;rounded=0;orthogonalLoop=1;jettySize=auto;html=1;exitX=1;exitY=0.5;exitDx=0;exitDy=0;entryX=1;entryY=0.5;entryDx=0;entryDy=0;" edge="1" parent="1" source="WlWlzccpBVXDmkGFudgn-13" target="WlWlzccpBVXDmkGFudgn-26">
          <mxGeometry relative="1" as="geometry">
            <Array as="points">
              <mxPoint x="1070" y="355" />
              <mxPoint x="1070" y="250" />
            </Array>
          </mxGeometry>
        </mxCell>
        <mxCell id="WlWlzccpBVXDmkGFudgn-13" value="" style="rounded=0;whiteSpace=wrap;html=1;" vertex="1" parent="1">
          <mxGeometry x="880" y="325" width="150" height="60" as="geometry" />
        </mxCell>
        <mxCell id="WlWlzccpBVXDmkGFudgn-16" value="" style="rounded=0;whiteSpace=wrap;html=1;" vertex="1" parent="1">
          <mxGeometry x="325" y="682" width="130" height="60" as="geometry" />
        </mxCell>
        <mxCell id="WlWlzccpBVXDmkGFudgn-18" value="" style="endArrow=none;dashed=1;html=1;dashPattern=1 3;strokeWidth=2;rounded=0;" edge="1" parent="1">
          <mxGeometry width="50" height="50" relative="1" as="geometry">
            <mxPoint x="290" y="85" as="sourcePoint" />
            <mxPoint x="290" y="555" as="targetPoint" />
          </mxGeometry>
        </mxCell>
        <mxCell id="WlWlzccpBVXDmkGFudgn-34" value="encoder / decoder" style="text;html=1;strokeColor=none;fillColor=none;align=center;verticalAlign=middle;whiteSpace=wrap;rounded=0;" vertex="1" parent="1">
          <mxGeometry x="540" y="369" width="100" height="30" as="geometry" />
        </mxCell>
        <mxCell id="WlWlzccpBVXDmkGFudgn-35" value="" style="group" vertex="1" connectable="0" parent="1">
          <mxGeometry x="530" y="230" width="130" height="60" as="geometry" />
        </mxCell>
        <mxCell id="WlWlzccpBVXDmkGFudgn-36" value="" style="ellipse;whiteSpace=wrap;html=1;" vertex="1" parent="WlWlzccpBVXDmkGFudgn-35">
          <mxGeometry width="130" height="60" as="geometry" />
        </mxCell>
        <mxCell id="WlWlzccpBVXDmkGFudgn-37" value="File manager" style="text;html=1;strokeColor=none;fillColor=none;align=center;verticalAlign=middle;whiteSpace=wrap;rounded=0;" vertex="1" parent="WlWlzccpBVXDmkGFudgn-35">
          <mxGeometry x="10.84" y="18.75" width="108.33" height="22.5" as="geometry" />
        </mxCell>
        <mxCell id="WlWlzccpBVXDmkGFudgn-38" value="Server/storage" style="text;html=1;strokeColor=none;fillColor=none;align=center;verticalAlign=middle;whiteSpace=wrap;rounded=0;" vertex="1" parent="1">
          <mxGeometry x="920" y="170" width="130" height="30" as="geometry" />
        </mxCell>
        <mxCell id="WlWlzccpBVXDmkGFudgn-39" value="server" style="text;html=1;strokeColor=none;fillColor=none;align=center;verticalAlign=middle;whiteSpace=wrap;rounded=0;" vertex="1" parent="1">
          <mxGeometry x="362" y="692" width="60" height="30" as="geometry" />
        </mxCell>
        <mxCell id="WlWlzccpBVXDmkGFudgn-41" value="&lt;div&gt;Client&lt;/div&gt;&lt;div&gt;&lt;br&gt;&lt;/div&gt;" style="text;html=1;strokeColor=none;fillColor=none;align=center;verticalAlign=middle;whiteSpace=wrap;rounded=0;" vertex="1" parent="1">
          <mxGeometry x="375" y="160" width="60" height="30" as="geometry" />
        </mxCell>
        <mxCell id="WlWlzccpBVXDmkGFudgn-49" value="UI" style="text;html=1;strokeColor=none;fillColor=none;align=center;verticalAlign=middle;whiteSpace=wrap;rounded=0;" vertex="1" parent="1">
          <mxGeometry x="160" y="160" width="60" height="30" as="geometry" />
        </mxCell>
        <mxCell id="WlWlzccpBVXDmkGFudgn-77" style="edgeStyle=none;rounded=0;orthogonalLoop=1;jettySize=auto;html=1;exitX=1;exitY=0.5;exitDx=0;exitDy=0;entryX=0;entryY=0.5;entryDx=0;entryDy=0;" edge="1" parent="1" source="WlWlzccpBVXDmkGFudgn-50" target="WlWlzccpBVXDmkGFudgn-7">
          <mxGeometry relative="1" as="geometry" />
        </mxCell>
        <mxCell id="WlWlzccpBVXDmkGFudgn-50" value="" style="rounded=0;whiteSpace=wrap;html=1;" vertex="1" parent="1">
          <mxGeometry x="130" y="280" width="120" height="60" as="geometry" />
        </mxCell>
        <mxCell id="WlWlzccpBVXDmkGFudgn-51" value="" style="rounded=0;whiteSpace=wrap;html=1;" vertex="1" parent="1">
          <mxGeometry x="130" y="390" width="130" height="60" as="geometry" />
        </mxCell>
        <mxCell id="WlWlzccpBVXDmkGFudgn-52" value="&lt;div&gt;GUI&lt;/div&gt;" style="text;html=1;strokeColor=none;fillColor=none;align=center;verticalAlign=middle;whiteSpace=wrap;rounded=0;" vertex="1" parent="1">
          <mxGeometry x="160" y="297.5" width="60" height="30" as="geometry" />
        </mxCell>
        <mxCell id="WlWlzccpBVXDmkGFudgn-76" style="edgeStyle=none;rounded=0;orthogonalLoop=1;jettySize=auto;html=1;exitX=1;exitY=0.5;exitDx=0;exitDy=0;" edge="1" parent="1" source="WlWlzccpBVXDmkGFudgn-53" target="WlWlzccpBVXDmkGFudgn-7">
          <mxGeometry relative="1" as="geometry" />
        </mxCell>
        <mxCell id="WlWlzccpBVXDmkGFudgn-53" value="Web interface" style="text;html=1;strokeColor=none;fillColor=none;align=center;verticalAlign=middle;whiteSpace=wrap;rounded=0;" vertex="1" parent="1">
          <mxGeometry x="120" y="405" width="140" height="30" as="geometry" />
        </mxCell>
        <mxCell id="WlWlzccpBVXDmkGFudgn-56" value="File Storage" style="text;html=1;strokeColor=none;fillColor=none;align=center;verticalAlign=middle;whiteSpace=wrap;rounded=0;" vertex="1" parent="1">
          <mxGeometry x="914.17" y="340" width="75.83" height="30" as="geometry" />
        </mxCell>
        <mxCell id="WlWlzccpBVXDmkGFudgn-102" style="edgeStyle=orthogonalEdgeStyle;rounded=0;orthogonalLoop=1;jettySize=auto;html=1;exitX=0.5;exitY=0;exitDx=0;exitDy=0;entryX=0.5;entryY=1;entryDx=0;entryDy=0;" edge="1" parent="1" source="WlWlzccpBVXDmkGFudgn-59" target="WlWlzccpBVXDmkGFudgn-4">
          <mxGeometry relative="1" as="geometry" />
        </mxCell>
        <mxCell id="WlWlzccpBVXDmkGFudgn-103" style="edgeStyle=none;rounded=0;orthogonalLoop=1;jettySize=auto;html=1;exitX=0;exitY=0.5;exitDx=0;exitDy=0;entryX=1;entryY=0.5;entryDx=0;entryDy=0;" edge="1" parent="1" source="WlWlzccpBVXDmkGFudgn-59" target="WlWlzccpBVXDmkGFudgn-5">
          <mxGeometry relative="1" as="geometry">
            <mxPoint x="470" y="680" as="targetPoint" />
          </mxGeometry>
        </mxCell>
        <mxCell id="WlWlzccpBVXDmkGFudgn-59" value="" style="rounded=0;whiteSpace=wrap;html=1;" vertex="1" parent="1">
          <mxGeometry x="760" y="630" width="120" height="60" as="geometry" />
        </mxCell>
        <mxCell id="WlWlzccpBVXDmkGFudgn-60" value="Postgres" style="text;html=1;strokeColor=none;fillColor=none;align=center;verticalAlign=middle;whiteSpace=wrap;rounded=0;" vertex="1" parent="1">
          <mxGeometry x="790" y="645" width="60" height="30" as="geometry" />
        </mxCell>
        <mxCell id="WlWlzccpBVXDmkGFudgn-71" style="edgeStyle=orthogonalEdgeStyle;rounded=0;orthogonalLoop=1;jettySize=auto;html=1;" edge="1" parent="1" source="WlWlzccpBVXDmkGFudgn-61">
          <mxGeometry relative="1" as="geometry">
            <mxPoint x="190" y="280" as="targetPoint" />
          </mxGeometry>
        </mxCell>
        <mxCell id="WlWlzccpBVXDmkGFudgn-61" value="User" style="shape=umlActor;verticalLabelPosition=bottom;verticalAlign=top;html=1;outlineConnect=0;" vertex="1" parent="1">
          <mxGeometry x="20" y="200" width="30" height="60" as="geometry" />
        </mxCell>
        <mxCell id="WlWlzccpBVXDmkGFudgn-74" style="edgeStyle=none;rounded=0;orthogonalLoop=1;jettySize=auto;html=1;exitX=0.5;exitY=0.5;exitDx=0;exitDy=0;exitPerimeter=0;entryX=0.071;entryY=0.32;entryDx=0;entryDy=0;entryPerimeter=0;" edge="1" parent="1" source="WlWlzccpBVXDmkGFudgn-62" target="WlWlzccpBVXDmkGFudgn-53">
          <mxGeometry relative="1" as="geometry" />
        </mxCell>
        <mxCell id="WlWlzccpBVXDmkGFudgn-62" value="Admin" style="shape=umlActor;verticalLabelPosition=bottom;verticalAlign=top;html=1;outlineConnect=0;" vertex="1" parent="1">
          <mxGeometry x="20" y="384" width="30" height="60" as="geometry" />
        </mxCell>
        <mxCell id="WlWlzccpBVXDmkGFudgn-75" style="edgeStyle=none;rounded=0;orthogonalLoop=1;jettySize=auto;html=1;exitX=0.75;exitY=0;exitDx=0;exitDy=0;" edge="1" parent="1" source="WlWlzccpBVXDmkGFudgn-34" target="WlWlzccpBVXDmkGFudgn-34">
          <mxGeometry relative="1" as="geometry" />
        </mxCell>
        <mxCell id="WlWlzccpBVXDmkGFudgn-84" value="" style="group" vertex="1" connectable="0" parent="1">
          <mxGeometry x="890" y="220" width="130" height="60" as="geometry" />
        </mxCell>
        <mxCell id="WlWlzccpBVXDmkGFudgn-29" value="" style="group" vertex="1" connectable="0" parent="WlWlzccpBVXDmkGFudgn-84">
          <mxGeometry width="130" height="60" as="geometry" />
        </mxCell>
        <mxCell id="WlWlzccpBVXDmkGFudgn-26" value="" style="ellipse;whiteSpace=wrap;html=1;" vertex="1" parent="WlWlzccpBVXDmkGFudgn-29">
          <mxGeometry width="130" height="60" as="geometry" />
        </mxCell>
        <mxCell id="WlWlzccpBVXDmkGFudgn-28" value="File manager" style="text;html=1;strokeColor=none;fillColor=none;align=center;verticalAlign=middle;whiteSpace=wrap;rounded=0;" vertex="1" parent="WlWlzccpBVXDmkGFudgn-84">
          <mxGeometry x="5.00333333333333" y="17.5" width="108.33333333333333" height="25" as="geometry" />
        </mxCell>
        <mxCell id="WlWlzccpBVXDmkGFudgn-85" value="" style="group" vertex="1" connectable="0" parent="1">
          <mxGeometry x="895" y="422.5" width="120" height="60" as="geometry" />
        </mxCell>
        <mxCell id="WlWlzccpBVXDmkGFudgn-6" value="" style="rounded=0;whiteSpace=wrap;html=1;" vertex="1" parent="WlWlzccpBVXDmkGFudgn-85">
          <mxGeometry width="120" height="60" as="geometry" />
        </mxCell>
        <mxCell id="WlWlzccpBVXDmkGFudgn-40" value="server" style="text;html=1;strokeColor=none;fillColor=none;align=center;verticalAlign=middle;whiteSpace=wrap;rounded=0;" vertex="1" parent="WlWlzccpBVXDmkGFudgn-85">
          <mxGeometry x="30" y="15" width="60" height="30" as="geometry" />
        </mxCell>
        <mxCell id="WlWlzccpBVXDmkGFudgn-92" style="edgeStyle=none;rounded=0;orthogonalLoop=1;jettySize=auto;html=1;exitX=0.5;exitY=1;exitDx=0;exitDy=0;entryX=0.5;entryY=0;entryDx=0;entryDy=0;entryPerimeter=0;" edge="1" parent="1" source="WlWlzccpBVXDmkGFudgn-36" target="WlWlzccpBVXDmkGFudgn-11">
          <mxGeometry relative="1" as="geometry" />
        </mxCell>
        <mxCell id="WlWlzccpBVXDmkGFudgn-98" style="edgeStyle=orthogonalEdgeStyle;rounded=0;orthogonalLoop=1;jettySize=auto;html=1;exitX=1;exitY=0.5;exitDx=0;exitDy=0;entryX=1;entryY=0.5;entryDx=0;entryDy=0;" edge="1" parent="1" source="WlWlzccpBVXDmkGFudgn-26" target="WlWlzccpBVXDmkGFudgn-6">
          <mxGeometry relative="1" as="geometry">
            <Array as="points">
              <mxPoint x="1070" y="250" />
              <mxPoint x="1070" y="453" />
            </Array>
          </mxGeometry>
        </mxCell>
        <mxCell id="WlWlzccpBVXDmkGFudgn-99" style="edgeStyle=orthogonalEdgeStyle;rounded=0;orthogonalLoop=1;jettySize=auto;html=1;exitX=1;exitY=0.5;exitDx=0;exitDy=0;entryX=1;entryY=0.5;entryDx=0;entryDy=0;" edge="1" parent="1" source="WlWlzccpBVXDmkGFudgn-6" target="WlWlzccpBVXDmkGFudgn-26">
          <mxGeometry relative="1" as="geometry">
            <Array as="points">
              <mxPoint x="1070" y="453" />
              <mxPoint x="1070" y="250" />
            </Array>
          </mxGeometry>
        </mxCell>
        <mxCell id="WlWlzccpBVXDmkGFudgn-101" style="edgeStyle=orthogonalEdgeStyle;rounded=0;orthogonalLoop=1;jettySize=auto;html=1;exitX=1;exitY=0.5;exitDx=0;exitDy=0;entryX=1;entryY=0.5;entryDx=0;entryDy=0;" edge="1" parent="1" source="WlWlzccpBVXDmkGFudgn-6" target="WlWlzccpBVXDmkGFudgn-13">
          <mxGeometry relative="1" as="geometry">
            <Array as="points">
              <mxPoint x="1070" y="453" />
              <mxPoint x="1070" y="355" />
            </Array>
          </mxGeometry>
        </mxCell>
        <mxCell id="WlWlzccpBVXDmkGFudgn-80" style="edgeStyle=none;rounded=0;orthogonalLoop=1;jettySize=auto;html=1;entryX=0;entryY=0.5;entryDx=0;entryDy=0;exitX=1;exitY=0.5;exitDx=0;exitDy=0;" edge="1" parent="1" source="WlWlzccpBVXDmkGFudgn-5" target="WlWlzccpBVXDmkGFudgn-59">
          <mxGeometry relative="1" as="geometry">
            <mxPoint x="509" y="680" as="sourcePoint" />
          </mxGeometry>
        </mxCell>
        <mxCell id="WlWlzccpBVXDmkGFudgn-104" value="" style="endArrow=classic;startArrow=classic;html=1;rounded=0;entryX=0.5;entryY=1;entryDx=0;entryDy=0;" edge="1" parent="1" source="WlWlzccpBVXDmkGFudgn-5" target="WlWlzccpBVXDmkGFudgn-2">
          <mxGeometry width="50" height="50" relative="1" as="geometry">
            <mxPoint x="390" y="540" as="sourcePoint" />
            <mxPoint x="620" y="420" as="targetPoint" />
          </mxGeometry>
        </mxCell>
        <mxCell id="WlWlzccpBVXDmkGFudgn-115" value="REST" style="edgeLabel;html=1;align=center;verticalAlign=middle;resizable=0;points=[];" vertex="1" connectable="0" parent="WlWlzccpBVXDmkGFudgn-104">
          <mxGeometry x="-0.0243" y="3" relative="1" as="geometry">
            <mxPoint as="offset" />
          </mxGeometry>
        </mxCell>
        <mxCell id="WlWlzccpBVXDmkGFudgn-108" style="edgeStyle=orthogonalEdgeStyle;rounded=0;orthogonalLoop=1;jettySize=auto;html=1;entryX=0.5;entryY=0;entryDx=0;entryDy=0;" edge="1" parent="1" source="WlWlzccpBVXDmkGFudgn-4" target="WlWlzccpBVXDmkGFudgn-59">
          <mxGeometry relative="1" as="geometry" />
        </mxCell>
        <mxCell id="WlWlzccpBVXDmkGFudgn-109" value="" style="endArrow=classic;startArrow=classic;html=1;rounded=0;exitX=1;exitY=0.5;exitDx=0;exitDy=0;" edge="1" parent="1" source="WlWlzccpBVXDmkGFudgn-2" target="WlWlzccpBVXDmkGFudgn-4">
          <mxGeometry width="50" height="50" relative="1" as="geometry">
            <mxPoint x="570" y="480" as="sourcePoint" />
            <mxPoint x="620" y="430" as="targetPoint" />
          </mxGeometry>
        </mxCell>
        <mxCell id="WlWlzccpBVXDmkGFudgn-110" value="GRPC" style="edgeLabel;html=1;align=center;verticalAlign=middle;resizable=0;points=[];" vertex="1" connectable="0" parent="WlWlzccpBVXDmkGFudgn-109">
          <mxGeometry x="0.0257" y="-1" relative="1" as="geometry">
            <mxPoint as="offset" />
          </mxGeometry>
        </mxCell>
        <mxCell id="WlWlzccpBVXDmkGFudgn-117" value="Server/web" style="text;html=1;strokeColor=none;fillColor=none;align=center;verticalAlign=middle;whiteSpace=wrap;rounded=0;" vertex="1" parent="1">
          <mxGeometry x="360" y="637" width="60" height="30" as="geometry" />
        </mxCell>
      </root>
    </mxGraphModel>
  </diagram>
</mxfile>
